<svg xmlns="http://www.w3.org/2000/svg" xmlns:xlink="http://www.w3.org/1999/xlink" width="49" height="58" viewBox="0 0 49 58"><defs><linearGradient id="a" y1="0.5" x2="1" y2="0.5" gradientUnits="objectBoundingBox"><stop offset="0" stop-color="#15eded"/><stop offset="1" stop-color="#029cf5"/></linearGradient></defs><g transform="translate(-1504.274 -1695.515)"><path d="M1538.227,1711.7h-27.352a4.657,4.657,0,0,1-4.716-4.557V1701.9a4.657,4.657,0,0,1,4.714-4.561h27.351a4.657,4.657,0,0,1,4.715,4.557v5.243a4.655,4.655,0,0,1-4.711,4.56Z" fill="url(#a)"/><path d="M1547.085,1701.594c-.837,0-1.615,0-2.278,0a6.512,6.512,0,0,0-6.583-6.077h-27.348a6.507,6.507,0,0,0-6.6,6.383v5.239a6.507,6.507,0,0,0,6.6,6.382h27.348a6.5,6.5,0,0,0,6.6-6.382v-1.9h2.261a2.492,2.492,0,0,1,2.416,2.507c.093,1.448-1.57,3.847-3.191,4.42l-18.185,7.4a9.2,9.2,0,0,0-5.5,8.008v2.007a6.431,6.431,0,0,0-4.913,6.16v11.4a6.5,6.5,0,0,0,6.6,6.377v0h.472a6.5,6.5,0,0,0,6.6-6.379v-11.4a6.434,6.434,0,0,0-4.99-6.179v-1.987a5.724,5.724,0,0,1,3.193-4.646l18.186-7.4a9.028,9.028,0,0,0,5.5-7.781A6.182,6.182,0,0,0,1547.085,1701.594Zm-6.031,5.543a2.813,2.813,0,0,1-2.83,2.734h-27.348a2.812,2.812,0,0,1-2.83-2.734V1701.9a2.813,2.813,0,0,1,2.83-2.737h27.348a2.814,2.814,0,0,1,2.83,2.737l0,5.239Zm-13.44,28.6v11.4a2.811,2.811,0,0,1-2.829,2.733h-.472a2.811,2.811,0,0,1-2.83-2.733v-11.4a2.813,2.813,0,0,1,2.83-2.736l.472,0A2.81,2.81,0,0,1,1527.614,1735.74Z" fill="#233148"/></g></svg>