<svg xmlns="http://www.w3.org/2000/svg" xmlns:xlink="http://www.w3.org/1999/xlink" width="38" height="61" viewBox="0 0 38 61"><defs><linearGradient id="a" y1="0.5" x2="1" y2="0.5" gradientUnits="objectBoundingBox"><stop offset="0" stop-color="#15eded"/><stop offset="1" stop-color="#029cf5"/></linearGradient></defs><g transform="translate(-1363.846 -1675.017)"><path d="M1394.736,1723.955h-23.78a5.008,5.008,0,0,1-5.077-4.913V1687.78a5.013,5.013,0,0,1,5.075-4.919h23.782a5.019,5.019,0,0,1,5.079,4.915v31.265a5.01,5.01,0,0,1-5.079,4.914Z" fill="url(#a)"/><path d="M1394.736,1675.017h-23.78a7.013,7.013,0,0,0-7.109,6.885v47.233a7.011,7.011,0,0,0,7.109,6.881h23.78a7.009,7.009,0,0,0,7.108-6.881h0V1681.9A7.014,7.014,0,0,0,1394.736,1675.017Zm-23.78,3.933h23.78a3.04,3.04,0,0,1,3.008,2.606,7.285,7.285,0,0,0-3.008-.659l-23.78,0a7.26,7.26,0,0,0-3.01.661A3.042,3.042,0,0,1,1370.956,1678.95Zm26.826,50.185a3.03,3.03,0,0,1-3.046,2.95h-23.78a3.032,3.032,0,0,1-3.048-2.95v-3.888a7.26,7.26,0,0,0,3.048.675h23.78a7.231,7.231,0,0,0,3.046-.675Zm0-10.094a3.028,3.028,0,0,1-3.046,2.949h-23.78a3.03,3.03,0,0,1-3.048-2.949V1687.78a3.03,3.03,0,0,1,3.048-2.95h23.78a3.028,3.028,0,0,1,3.046,2.95Zm-10.995,7.883h-7.881a1,1,0,0,0-1.018.982v1.969a1.007,1.007,0,0,0,1.018.984h7.881a1,1,0,0,0,1.017-.984v-1.969A1,1,0,0,0,1386.787,1726.925Z" fill="#233148"/></g></svg>