<svg xmlns="http://www.w3.org/2000/svg" xmlns:xlink="http://www.w3.org/1999/xlink" width="52.001" height="52" viewBox="0 0 52.001 52"><defs><linearGradient id="a" y1="0.5" x2="1" y2="0.5" gradientUnits="objectBoundingBox"><stop offset="0" stop-color="#15eded"/><stop offset="1" stop-color="#029cf5"/></linearGradient></defs><g transform="translate(-1523.754 -1705.147)"><path d="M1566.754,1729.892l7.287-20.324a2.348,2.348,0,0,0,.158-.818,1.057,1.057,0,0,0-.333-.848,1.356,1.356,0,0,0-.407-.238c-.057-.019-.116-.04-.176-.054s-.1-.027-.155-.039a2.794,2.794,0,0,0-.54-.055l-.018,0H1533.63a3.048,3.048,0,0,0-3.041,2.99v20.7a3.068,3.068,0,0,0,2.88,2.063H1561.9A5.753,5.753,0,0,0,1566.754,1729.892Z" fill="url(#a)"/><path d="M1540.307,1746.643a5.252,5.252,0,1,0,5.351,5.253A5.3,5.3,0,0,0,1540.307,1746.643Zm0,6.9a1.65,1.65,0,1,1,1.68-1.648A1.672,1.672,0,0,1,1540.307,1753.545Zm21.364-6.9a5.253,5.253,0,1,0,5.349,5.251A5.3,5.3,0,0,0,1561.672,1746.643Zm0,6.9a1.65,1.65,0,1,1,1.682-1.65A1.669,1.669,0,0,1,1561.672,1753.545Zm12.6-47.082a5.09,5.09,0,0,0-2.546-1.2l-.209-.031a6.416,6.416,0,0,0-.9-.072H1556.7c-.116-.008-.229-.013-.341-.013H1525.59a1.8,1.8,0,1,0,0,3.6h3.93l-.008.015h.15a6.191,6.191,0,0,0-.63,2.7v27.754a6.374,6.374,0,0,0,6.424,6.3h18.191v0h15.134a1.8,1.8,0,1,0,0-3.6h-4.813v0h-28.512a2.754,2.754,0,0,1-2.753-2.7v-4.147a6.5,6.5,0,0,0,2.6.546h25.68a8.717,8.717,0,0,0,7.84-5.449l4.546-12.671,2.04-5.691a5.815,5.815,0,0,0,.347-1.926A4.528,4.528,0,0,0,1574.268,1706.463Zm-2.325,4.156-6.581,18.351a5.2,5.2,0,0,1-4.38,3.046H1535.3a2.774,2.774,0,0,1-2.6-1.864v-18.691a2.753,2.753,0,0,1,2.747-2.7h35.164a.037.037,0,0,1,.018,0,2.348,2.348,0,0,1,.488.051,1.237,1.237,0,0,1,.142.034c.054.012.1.033.159.048a1.243,1.243,0,0,1,.365.213.963.963,0,0,1,.3.768A2.176,2.176,0,0,1,1571.944,1710.619Z" fill="#233148"/></g></svg>