<svg xmlns="http://www.w3.org/2000/svg" xmlns:xlink="http://www.w3.org/1999/xlink" width="55" height="52" viewBox="0 0 55 52"><defs><linearGradient id="a" y1="0.5" x2="1" y2="0.5" gradientUnits="objectBoundingBox"><stop offset="0" stop-color="#15eded"/><stop offset="1" stop-color="#029cf5"/></linearGradient></defs><g transform="translate(-1523.437 -1727.525)"><path d="M1571.915,1762.914h-41.949a4.685,4.685,0,0,1-4.275-2.795,4.477,4.477,0,0,1-.388-1.823v-24.309a4.656,4.656,0,0,1,4.656-4.615h41.952a4.656,4.656,0,0,1,4.662,4.613V1758.3a4.655,4.655,0,0,1-4.657,4.618Z" fill="url(#a)"/><path d="M1571.911,1727.526h-41.945a6.506,6.506,0,0,0-6.528,6.461V1758.3a6.47,6.47,0,0,0,3.962,5.938v10.909a5.112,5.112,0,0,0,.788,2.919,3.328,3.328,0,0,0,2.687,1.462h.077a5.021,5.021,0,0,0,3.1-1.262l12.909-10.46c1.068-.87,2.671-2.01,4.239-3.043h20.712a6.507,6.507,0,0,0,6.526-6.463v-24.309A6.5,6.5,0,0,0,1571.911,1727.526Zm-27.314,37.419-12.907,10.463a3.012,3.012,0,0,1-.506.336,2.621,2.621,0,0,1-.056-.6v-10.385h13.708C1544.759,1764.818,1544.672,1764.886,1544.6,1764.945Zm30.112-6.649a2.813,2.813,0,0,1-2.8,2.771h-41.945a2.831,2.831,0,0,1-2.567-1.685,2.711,2.711,0,0,1-.231-1.086v-24.309a2.813,2.813,0,0,1,2.8-2.77h41.945a2.814,2.814,0,0,1,2.8,2.77l0,24.309Z" fill="#233148"/></g></svg>