<svg xmlns="http://www.w3.org/2000/svg" width="1439.564" height="553.78" viewBox="0 0 1439.564 553.78"><path d="M1763.25,1887.943l.934.359q.717-1.865,1.44-3.734l-.932-.361Q1763.969,1886.077,1763.25,1887.943Zm-2.864,7.477.933.357,1.43-3.74-.933-.356Q1761.1,1893.555,1760.386,1895.42Zm-5.72,14.953.933.359q.717-1.865,1.432-3.74l-.933-.355Zm18.888-48.5h0Zm59.452-98.934.7.718q1.428-1.389,2.893-2.736l-.677-.736Q1834.444,1761.542,1833.006,1762.942Zm-60.962,102.643.926.376q.751-1.853,1.509-3.7l-.923-.381Q1772.8,1863.728,1772.044,1865.585Zm-1.5,3.715h0Zm-1.48,3.72.93.369q.737-1.86,1.48-3.717l-.928-.371Q1769.8,1871.161,1769.067,1873.02Zm-2.927,7.457.931.361q.726-1.863,1.457-3.726l-.929-.366Q1766.864,1878.609,1766.14,1880.477Zm-29.737,74.275.91.42q.833-1.811,1.658-3.649l-.913-.41Q1737.236,1952.949,1736.4,1954.752Zm15.379-36.913.933.362q.72-1.86,1.446-3.733l-.933-.361Q1752.5,1915.979,1751.782,1917.839Zm-18.806,44.132.9.44q.875-1.787,1.74-3.61l-.9-.429Q1733.847,1960.187,1732.976,1961.971Zm8.292-18.18q-.792,1.845-1.59,3.668l.916.4q.8-1.822,1.594-3.675l-.92-.4Zm7.592-18.5.93.368q.734-1.855,1.468-3.725l-.931-.366Q1749.595,1923.434,1748.86,1925.289Zm-2.976,7.426.926.375q.75-1.846,1.5-3.713l-.928-.371Q1746.632,1930.869,1745.884,1932.715Zm-16.525,36.38.886.465q.927-1.76,1.84-3.562l-.892-.453Q1730.284,1967.34,1729.359,1969.095Zm13.472-28.988.92.388q.775-1.836,1.541-3.7l-.924-.381Q1743.6,1938.273,1742.831,1940.107Zm64.939-146.1.834.55q1.1-1.674,2.223-3.317l-.825-.562Q1808.873,1792.326,1807.77,1794.007Zm4.524-6.62.814.58q1.158-1.632,2.343-3.232l-.8-.595Q1813.458,1785.747,1812.294,1787.387Zm-8.823,13.386.853.524q1.046-1.707,2.114-3.388l-.845-.535Q1804.521,1799.062,1803.471,1800.773Zm18.622-26.078.766.643q1.287-1.527,2.6-3.018l-.749-.662Q1823.39,1773.158,1822.093,1774.695Zm5.31-6.011.735.678q1.356-1.463,2.745-2.887l-.716-.7Q1828.769,1767.21,1827.4,1768.684Zm-7.86,9.1q-1.252,1.56-2.482,3.151l.793.612q1.222-1.586,2.469-3.134l-.778-.629Zm-18.143,26.417q-1.017,1.72-2.02,3.462l.867.5q1-1.735,2.013-3.45l-.86-.509Zm-7.808,14q-.93,1.77-1.844,3.557l.89.458q.909-1.786,1.84-3.548l-.886-.465Zm-13.787,28.9h0Zm-1.592,3.673.919.4q.791-1.838,1.592-3.668l-.917-.4Q1779,1848.933,1778.213,1850.775Zm3.21-7.334.913.409q.811-1.825,1.637-3.637l-.91-.414Q1782.238,1841.616,1781.423,1843.441Zm6.747-14.507.9.438q.876-1.8,1.766-3.586l-.9-.446Q1789.049,1827.129,1788.17,1828.934Zm-1.736,3.61q-.858,1.806-1.7,3.628l.907.419q.844-1.812,1.7-3.616l-.9-.429Zm-11.345,25.62.924.385q.77-1.852,1.55-3.7l-.92-.391Q1775.86,1856.311,1775.089,1858.164Zm20.389-43.493.879.474q.954-1.758,1.922-3.5l-.872-.488Q1796.434,1812.9,1795.478,1814.671Zm-36.521,84.488q-.717,1.873-1.429,3.737l.934.358q.714-1.865,1.429-3.738l-.934-.358ZM1592.825,2021.51h4v-1h-4Zm-8,0h4v-1h-4Zm-24,0h4v-1h-4Zm8,0h4v-1h-4Zm8,0h4v-1h-4Zm24,0h4v-1h-4Zm16,0h4v-1h-4Zm-8,0h4v-1h-4Zm16,0h4v-1h-4Zm-72,0h4v-1h-4Zm-48,0h4v-1h-4Zm16,0h4v-1h-4Zm-8,0h4v-1h-4Zm16,0h4v-1h-4Zm16,0h4v-1h-4Zm-8,0h4v-1h-4Zm96,0h4v-1h-4Zm94.645-48.9q-.969,1.768-1.952,3.482l.867.5q.99-1.725,1.961-3.5l-.874-.48Zm-32.759,39.292.545.841q1.672-1.083,3.3-2.29l-.6-.8Q1696.359,2010.837,1694.711,2011.9Zm-205.885,9.608h4v-1h-4Zm212.233-14.313.641.769q1.526-1.281,3.005-2.661l-.683-.731Q1702.56,2005.936,1701.059,2007.2Zm22.438-27.664h0Zm-4.27,6.731q-1.121,1.674-2.266,3.277l.814.582q1.155-1.62,2.283-3.3l-.829-.558Zm2.175-3.338.847.535q1.061-1.677,2.1-3.414l-.856-.513Q1722.46,1981.259,1721.4,1982.926Zm-14.55,18.871.718.695q1.383-1.425,2.73-2.939l-.747-.666Q1708.218,2000.385,1706.852,2001.8Zm-58.026,19.713h4v-1h-4Zm8,0h4v-1h-4Zm-16,0h4v-1h-4Zm31.909-1.438.129.993q2.015-.259,3.967-.665l-.2-.978Q1674.712,2019.817,1672.734,2020.072Zm7.72-1.6.276.961q1.937-.557,3.808-1.261l-.35-.936Q1682.352,2017.926,1680.454,2018.475Zm7.364-2.755.422.909q1.815-.844,3.576-1.82l-.486-.874Q1689.6,2014.893,1687.818,2015.72Zm-22.119,4.794c-.28,0-.561,0-.844-.006h-.03v1h.025c.279,0,.565,0,.849,0q1.594,0,3.152-.084l-.055-1Q1667.267,2020.515,1665.7,2020.514Zm48.9-27.769q-1.219,1.6-2.467,3.12l.774.635q1.257-1.538,2.489-3.148l-.8-.607Zm370.447-443.43.876.48q.97-1.77,1.939-3.5l-.871-.49Q2086.019,1547.54,2085.047,1549.315Zm-1.905,3.527q-.939,1.75-1.874,3.542l.885.463q.936-1.785,1.869-3.534l-.88-.473Zm5.837-10.516.866.5q1.014-1.746,2.03-3.441l-.856-.513Q2089.994,1540.572,2088.979,1542.326Zm-11.38,21.182.891.451q.912-1.8,1.821-3.561l-.889-.458Q2078.511,1561.709,2077.6,1563.508Zm-3.592,7.16.9.443q.894-1.8,1.788-3.58l-.894-.447Q2074.9,1568.863,2074.007,1570.668Zm28.281-48.392.786.619q1.251-1.588,2.521-3.079l-.761-.649Q2103.552,1520.672,2102.288,1522.276Zm-11.27,16.6h0Zm-45.937,88.854.874.484q.972-1.751,1.926-3.508l-.878-.478Q2046.049,1625.979,2045.081,1627.727Zm52.443-98.983.824.569q1.149-1.662,2.314-3.247l-.806-.591Q2098.683,1527.068,2097.524,1528.744Zm-44.91,84.918.887.461q.924-1.781,1.836-3.558l-.89-.458Q2053.537,1611.884,2052.614,1613.662Zm17.847-35.813.9.44q.885-1.8,1.769-3.59l-.9-.443Q2071.349,1576.043,2070.461,1577.849Zm-14.2,28.7.893.451q.906-1.789,1.8-3.574l-.894-.449Q2057.172,1604.756,2056.265,1606.545Zm-5.5,10.646q-.929,1.762-1.869,3.522l.882.472q.942-1.763,1.872-3.527l-.883-.467Zm9.091-17.8.894.445q.9-1.8,1.781-3.585l-.9-.445Q2060.751,1597.6,2059.858,1599.4Zm7.077-14.358.9.44q.882-1.806,1.761-3.6l-.9-.441Q2067.817,1583.232,2066.935,1585.037Zm-3.528,7.185.9.442q.888-1.8,1.764-3.594l-.9-.44Q2064.3,1590.419,2063.407,1592.222Zm29.708-56.77.849.531q1.072-1.711,2.155-3.36l-.837-.549Q2094.2,1533.733,2093.115,1535.452Zm89.414-37.78.25.968q1.929-.5,3.866-1.1l-.3-.954Q2184.433,1497.181,2182.529,1497.672Zm-7.776,1.619.159.988q1.969-.32,3.952-.728l-.2-.98Q2176.7,1498.979,2174.753,1499.291Zm15.348-3.992.347.937q1.861-.691,3.73-1.5l-.4-.919Q2191.938,1494.618,2190.1,1495.3Zm17.494-9.231q-1.655,1.158-3.3,2.2l.533.845q1.671-1.051,3.343-2.224l-.573-.821Zm-10.217,6.085.446.9q1.773-.879,3.552-1.879l-.491-.872Q2199.132,1491.285,2197.378,1492.153Zm13.411-8.438.613.791q1.56-1.2,3.121-2.524l-.645-.762Q2212.333,1482.523,2210.789,1483.715Zm-103.277,32.453.729.683q1.382-1.479,2.785-2.83l-.692-.72Q2108.909,1514.672,2107.512,1516.168Zm63.3-16.326q-1.99.237-3.961.394l.083,1q1.989-.161,3.995-.4l-.117-.994Zm-47.443,4.111q-1.8.866-3.539,1.924l.519.853q1.7-1.031,3.454-1.875l-.434-.9Zm-10.052,6.649.648.763q1.533-1.3,3.1-2.447l-.588-.808Q2114.881,1509.279,2113.32,1510.6Zm13.766-8.2.334.943a33.868,33.868,0,0,1,3.753-1.1l-.226-.975A34.84,34.84,0,0,0,2127.086,1502.4Zm31.811-1.765.02,1q2-.045,4.013-.143l-.05-1Q2160.877,1500.593,2158.9,1500.637Zm-7.982.015-.016,1q1.9.027,3.82.029h.187v-1h-.187Q2152.8,1500.682,2150.915,1500.652Zm-16.018-.054.11.994a33.508,33.508,0,0,1,3.759-.207h.139l.006-1c-.049,0-.1,0-.145,0A34.063,34.063,0,0,0,2134.9,1500.6Zm8,.875c1.322.033,2.654.07,4,.1l.024-1c-1.343-.029-2.677-.066-4-.1ZM1979.249,1706.72l.556.833q1.668-1.116,3.3-2.278l-.579-.815Q1980.9,1705.614,1979.249,1706.72Zm-51.561,19.768.142.991q2-.285,3.961-.628l-.173-.986Q1929.673,1726.206,1927.688,1726.488Zm-7.916.894.084,1q2.015-.168,3.994-.392l-.113-.992Q1921.775,1727.214,1919.772,1727.382Zm121.373-92.694.867.5q1-1.737,1.988-3.482l-.871-.493Q2042.145,1632.956,2041.145,1634.688Zm-137.324,93.879.118.993q1.961-.237,3.958-.412l-.089-1Q1905.795,1728.331,1903.821,1728.567Zm10.34-.835q-1.187.054-2.358.122l.06,1c.777-.045,1.556-.085,2.341-.12q.827-.033,1.65-.08l-.056-1Q1914.982,1727.7,1914.161,1727.732Zm36.693-6.83.329.946q1.9-.66,3.765-1.373l-.356-.934Q1952.741,1720.251,1950.854,1720.9Zm-7.594,2.358.265.963q1.944-.532,3.848-1.125l-.3-.954Q1945.187,1722.731,1943.26,1723.26Zm-7.734,1.86.2.98q1.977-.411,3.913-.877l-.234-.971Q1937.488,1724.712,1935.526,1725.12Zm-90.405,27.318.608.79q1.581-1.212,3.2-2.373l-.584-.812Q1846.712,1751.213,1845.121,1752.438Zm13.309-8.924.5.867q1.72-1,3.482-1.938l-.47-.883Q1860.167,1742.509,1858.43,1743.514Zm-6.8,4.242.557.83q1.645-1.106,3.331-2.156l-.53-.85Q1853.293,1746.641,1851.634,1747.756Zm106.645-29.7.39.921q1.851-.784,3.669-1.619l-.42-.909Q1960.118,1717.279,1958.279,1718.055Zm-66.311,12.5q-1.973.426-3.9.919l.245.968q1.915-.486,3.871-.91l-.213-.979Zm-11.6,3.147.31.951q1.881-.615,3.8-1.172l-.279-.959Q1882.26,1733.083,1880.364,1733.7Zm-14.85,6.031.44.9q1.782-.871,3.6-1.685l-.408-.914Q1867.308,1738.853,1865.514,1739.734Zm7.321-3.274.375.926q1.835-.745,3.709-1.431l-.343-.939Q1874.684,1735.708,1872.835,1736.46Zm27.016-7.356q-2,.3-3.954.663l.182.982q1.938-.359,3.919-.656l-.147-.99Zm124.079-67.448.813.58q1.165-1.627,2.307-3.275l-.821-.57Q2025.088,1660.033,2023.93,1661.656Zm-4.747,6.42.793.608q1.218-1.591,2.409-3.2l-.8-.594Q2020.395,1666.493,2019.183,1668.076Zm7.044-9.687,0,0v0Zm6.623-9.987.844.538q1.078-1.7,2.138-3.408l-.85-.526Q2033.926,1646.711,2032.85,1648.4Zm4.223-6.816.858.518q1.035-1.719,2.058-3.45l-.861-.508Q2038.108,1639.871,2037.073,1641.586Zm-22.849,32.743.771.636q1.273-1.545,2.518-3.119l-.784-.62Q2015.488,1672.792,2014.224,1674.329Zm14.255-19.237.831.556q1.116-1.66,2.213-3.339l-.835-.547Q2029.592,1653.433,2028.479,1655.092Zm-189.568,102.421.655.755q1.5-1.308,3.045-2.565l-.633-.774Q1840.425,1756.2,1838.911,1757.513Zm146.824-55.408.6.8q1.593-1.2,3.153-2.451l-.624-.781Q1987.32,1700.907,1985.735,1702.1Zm-20.231,12.621.448.893q1.794-.9,3.555-1.851l-.476-.881Q1967.287,1713.833,1965.5,1714.726Zm7-3.788.5.865q1.735-1.014,3.431-2.074l-.529-.848Q1974.221,1709.933,1972.5,1710.938Zm36.534-30.545.745.664q1.335-1.5,2.637-3.021l-.759-.65Q2010.36,1678.9,2009.035,1680.393Zm-5.443,5.851.718.7q1.4-1.442,2.772-2.92l-.731-.68Q2004.984,1684.809,2003.592,1686.244Zm-5.7,5.6.682.73q1.467-1.371,2.9-2.781l-.7-.713Q1999.347,1690.481,1997.891,1691.844Zm-5.953,5.3.646.762q1.53-1.291,3.026-2.626l-.664-.747Q1993.458,1695.86,1991.938,1697.145ZM1496.824,2021.51h4v-1h-4Zm-507.5-352.094q1.225,1.588,2.476,3.152l.782-.624q-1.246-1.56-2.465-3.139Zm-1.62-3.793v0h0ZM984.546,1663q1.167,1.62,2.36,3.221l.8-.6q-1.187-1.593-2.348-3.209Zm26.953,29.449-.679.735q1.472,1.362,2.977,2.687l.662-.749h0Q1012.963,1693.8,1011.5,1692.447Zm-11.922-10.7q1.344,1.494,2.713,2.952l.731-.683q-1.363-1.453-2.7-2.938Zm-5.241-6.069q1.28,1.547,2.591,3.06l.756-.652q-1.3-1.509-2.58-3.045Zm10.732,11.914q1.406,1.436,2.844,2.831l.7-.717q-1.429-1.389-2.825-2.813Zm-29.5-37.833q1.083,1.688,2.181,3.36l.834-.551q-1.1-1.664-2.172-3.347Zm4.4,6.687q1.122,1.657,2.263,3.3l.822-.573q-1.141-1.633-2.258-3.284Zm-27.96-48.612q.9,1.782,1.821,3.564l.89-.456q-.918-1.782-1.822-3.562Zm-3.6-7.154q.891,1.787,1.793,3.58l.894-.45q-.9-1.791-1.793-3.579Zm22.921,42.275q1.041,1.714,2.1,3.416l.847-.527q-1.058-1.7-2.1-3.408Zm-15.655-28q.926,1.773,1.861,3.548l.884-.468q-.936-1.77-1.858-3.541Zm11.555,21.095q1.008,1.735,2.035,3.464l.859-.51q-1.024-1.722-2.028-3.457Zm-7.81-14.013q.948,1.766,1.908,3.524l.879-.481q-.96-1.755-1.905-3.515Zm3.844,7.031q.975,1.75,1.964,3.493l.87-.494q-.988-1.741-1.959-3.486ZM1109.8,1729.244h0l0,0Zm-12.024-.335q2,.133,3.971.32l.095-.994q-1.98-.19-4-.324Zm-15.957-1.3q1.972.269,3.98.481l.1-.994q-1.992-.211-3.949-.477Zm-15.716-3.143q1.928.515,3.889.972l.228-.974q-1.95-.456-3.859-.964Zm-49.258-25.98q1.533,1.281,3.1,2.52l.621-.785q-1.559-1.232-3.081-2.5Zm72.946,29.967q1.98.153,4,.249l.05-1q-2.007-.1-3.973-.249Zm23.773,2.467q1.966.378,3.893.814l.221-.975q-1.944-.441-3.926-.82Zm-7.86-1.246q1.989.252,3.941.561l.155-.987q-1.965-.313-3.97-.566ZM944.85,1593.5q.881,1.789,1.774,3.59l.895-.444h0q-.893-1.8-1.773-3.588Zm129.059,132.779q1.951.39,3.944.723l.165-.986q-1.975-.33-3.913-.717Zm-50.792-22.841q1.6,1.194,3.244,2.346l.574-.817h0q-1.626-1.144-3.221-2.332Zm35.3,18.7q1.893.639,3.821,1.221l.288-.956q-1.911-.579-3.788-1.212Zm-28.744-14.1q1.674,1.1,3.387,2.157l.523-.851q-1.7-1.047-3.359-2.141Zm-9.113-7.823v0h0Zm30.348,19.107q1.848.763,3.732,1.471l.351-.936v0q-1.87-.7-3.7-1.457Zm-14.39-7.07q1.737,1,3.51,1.938l.47-.881q-1.761-.937-3.482-1.926Zm7.082,3.767q1.794.882,3.627,1.711l.413-.912q-1.82-.82-3.6-1.7ZM935.151,1571.5l-.9.444q.885,1.782,1.775,3.587l.9-.441h0Q936.037,1573.287,935.151,1571.5Zm-100.4-71.083q2,.3,3.984.52l.11-.994q-1.966-.216-3.945-.514Zm109.225,89.048v0h0Zm-132.213-96.006q1.834.882,3.666,1.644l.384-.922q-1.808-.755-3.618-1.625Zm7.412,3.1q1.912.683,3.817,1.251l.288-.957q-1.881-.564-3.769-1.238Zm23.631,3.75-.072,1c1.343.1,2.679.176,4.007.232l.044-1h0C845.468,1500.482,844.144,1500.408,842.81,1500.309Zm26.405.084c-.816.017-1.639.038-2.466.056l.024,1q1.242-.028,2.465-.056c.246-.006.491-.008.739-.008s.515,0,.773.008l.02-1c-.263-.006-.529-.01-.793-.01S869.472,1500.387,869.215,1500.393Zm-15.191.289q-1.618,0-3.252-.028l-.016,1c1.1.02,2.185.027,3.268.027h.743l0-1C854.518,1500.682,854.271,1500.682,854.024,1500.682Zm8.726-.13c-1.321.032-2.652.063-3.994.085l.017,1q2.017-.034,4-.085l-.025-1Zm-81.919-32.176q1.307,1.566,2.615,3.039l.747-.664c-.865-.976-1.73-1.978-2.593-3.017Zm1438.9,7.472Zm0,0q-1.436,1.426-2.873,2.744l.678.736q1.431-1.312,2.861-2.731v-.079ZM874.806,1500.719l-.138.988a33.607,33.607,0,0,1,3.84.771l.254-.968h0A33.755,33.755,0,0,0,874.806,1500.719Zm-70.087-11.108q1.738,1.067,3.473,2.015l.481-.876q-1.714-.937-3.431-1.99Zm-18.558-15.244q1.411,1.478,2.82,2.852l.7-.715q-1.4-1.364-2.794-2.827Zm11.931,10.711q1.631,1.233,3.26,2.346l.563-.826q-1.608-1.1-3.22-2.317Zm-6.183-5.114q1.516,1.369,3.035,2.624l.638-.771q-1.5-1.243-3-2.594Zm35.2,17.934-.239.971q1.966.483,3.924.867l.193-.98h0Q829.057,1498.373,827.113,1497.9Zm99.907,59.776q.919,1.761,1.836,3.554l.89-.457q-.918-1.8-1.838-3.558Zm3.654,7.118q.9,1.774,1.8,3.574l.9-.448q-.9-1.8-1.8-3.577Zm-7.408-14.177q.944,1.74,1.893,3.521l.882-.469q-.948-1.783-1.9-3.53Zm-41.042-46.935a37.276,37.276,0,0,1,3.578,1.6l.456-.89a38.369,38.369,0,0,0-3.675-1.648Zm59.1,82.635q.876,1.791,1.762,3.593l.9-.441q-.883-1.8-1.761-3.594Zm180,146.356q1.932.5,3.827,1.068l.287-.958q-1.911-.569-3.862-1.08ZM937.8,1579.127q.879,1.787,1.763,3.594l.9-.441-1.763-3.595Zm-18.431-35.49q.987,1.716,1.971,3.477l.873-.489q-.987-1.767-1.977-3.487Zm-26.325-34.944v0h0Zm2.457,3.293q1.462,1.281,2.9,2.7l.7-.713q-1.455-1.434-2.941-2.739Zm-6.291-4.748q1.637,1.041,3.23,2.252l.6-.8q-1.625-1.23-3.3-2.3Zm17.04,16.4q1.2,1.551,2.387,3.187l.809-.584v0q-1.2-1.648-2.405-3.215Zm4.679,6.449q1.112,1.623,2.21,3.321l.839-.544q-1.105-1.7-2.222-3.342Zm4.347,6.69q1.043,1.68,2.075,3.414l.859-.512q-1.038-1.743-2.083-3.427Zm-14.131-19.233q1.317,1.443,2.612,2.994l.768-.642q-1.309-1.568-2.642-3.026Zm467.685,503.967h4v-1h-4Zm-54.536-8.254q1.713,1.07,3.478,2.012l.47-.883q-1.735-.922-3.417-1.978Zm7.09,3.769q1.837.812,3.733,1.482l.334-.942q-1.861-.66-3.663-1.455Zm-12.981-9.236-.631.776q1.568,1.283,3.187,2.448l.586-.812h0Q1309.946,2009.054,1308.4,2007.789Zm-6.574-4.633q1.43,1.441,2.9,2.782l.674-.738q-1.452-1.323-2.864-2.747Zm27.11,16.538q1.923.515,3.912.89l.185-.982q-1.953-.366-3.838-.874Zm15.89,1.816h4v-1h-4Zm-48.4-24.3q1.3,1.555,2.637,3.029l.741-.671q-1.321-1.456-2.61-3Zm56.4,24.3h4v-1h-4Zm-16.01-.334q1.97.216,4,.3l.038-1q-2-.075-3.928-.291Zm-65.006-65.187q.851,1.83,1.707,3.626l.9-.431q-.856-1.794-1.7-3.616Zm3.458,7.232q.893,1.811,1.8,3.582l.89-.453v0q-.9-1.764-1.793-3.569Zm-9.928-21.9q.783,1.854,1.571,3.686l.918-.4q-.784-1.824-1.567-3.678Zm13.58,29.036q.951,1.785,1.914,3.525l.875-.484q-.96-1.733-1.905-3.509Zm8.065,13.868q1.094,1.708,2.212,3.351l.825-.563,0,0q-1.11-1.633-2.2-3.328Zm-4.174-6.852q1.012,1.75,2.047,3.449l.854-.518v0q-1.028-1.687-2.035-3.43Zm8.691,13.489q1.189,1.644,2.406,3.215l.791-.612q-1.206-1.557-2.387-3.189Zm-22.991-42.181q.813,1.842,1.631,3.661l.913-.411q-.82-1.813-1.628-3.653Zm172.316,72.826h4v-1h-4Zm-8,0h4v-1h-4Zm-72,0h4v-1h-4Zm112,0h4v-1h-4Zm-16,0h4v-1h-4Zm-32,0h4v-1h-4Zm-295.892-286.57q1.891.635,3.745,1.33l.35-.936q-1.869-.7-3.777-1.342Zm319.893,286.57h4v-1h-4Zm-72,0h4v-1h-4Zm104,0h4v-1h-4Zm-64,0h4v-1h-4Zm-32,0h4v-1h-4Zm24,0h4v-1h-4Zm-16,0h4v-1h-4Zm8,0h4v-1h-4Zm64,0h4v-1h-4Zm-273.392-239.25q1.206,1.579,2.388,3.194l.809-.592q-1.189-1.619-2.4-3.21Zm4.716,6.435q1.147,1.626,2.267,3.283l.829-.561q-1.13-1.662-2.278-3.3Zm-9.689-12.67q1.273,1.528,2.52,3.09l.782-.623q-1.252-1.572-2.533-3.108Zm14.167,19.276q1.088,1.666,2.155,3.361l.846-.533q-1.073-1.7-2.165-3.373Zm4.255,6.756q1.038,1.7,2.053,3.425l.861-.507q-1.019-1.733-2.059-3.438Zm-23.667-32.035q1.343,1.467,2.658,2.972l.753-.658q-1.324-1.515-2.673-2.988Zm32.471,45.432-.879.473q.944,1.757,1.87,3.53l.888-.463h0Q1214.634,1817.216,1213.686,1815.454Zm2.822,7.555q.9,1.777,1.795,3.57l.9-.444q-.89-1.8-1.8-3.58Zm-7.569-14.071q.987,1.729,1.956,3.481l.874-.481v0q-.974-1.757-1.964-3.493Zm-65.337-67.905q1.78.891,3.524,1.839l.477-.878q-1.757-.957-3.556-1.853Zm32.083,23.256q1.413,1.4,2.8,2.831l.72-.694q-1.4-1.446-2.821-2.85Zm-39.312-26.559q1.842.766,3.643,1.588l.416-.908q-1.82-.833-3.676-1.6Zm14.212,7.1q1.716,1.011,3.392,2.074l.535-.844q-1.69-1.074-3.42-2.091Zm6.714,4.26q1.643,1.121,3.25,2.293l.588-.809q-1.618-1.18-3.277-2.31Zm13.2,9.008-.66.75q1.494,1.315,2.956,2.675l.683-.73h0Q1172,1759.422,1170.5,1758.1Zm-6.776-4.319q1.566,1.218,3.092,2.485l.637-.77q-1.539-1.273-3.114-2.5ZM1242,1881.686q.723,1.863,1.442,3.72l.933-.359q-.719-1.859-1.441-3.723Zm5.743,14.929q.717,1.872,1.429,3.739l.934-.356q-.712-1.866-1.428-3.739Zm2.859,7.477q.714,1.875,1.428,3.74l.936-.357q-.715-1.864-1.431-3.74Zm-5.722-14.951q.72,1.872,1.435,3.737l.933-.358q-.716-1.867-1.434-3.739Zm14.4,37.351q.74,1.866,1.486,3.719l.927-.373q-.742-1.85-1.483-3.716Zm2.988,7.432q.76,1.863,1.524,3.705l.922-.384q-.761-1.837-1.52-3.7Zm-5.916-14.886q.727,1.872,1.459,3.73l.928-.366q-.727-1.857-1.457-3.726Zm-2.89-7.47q.722,1.875,1.441,3.737l.932-.362q-.72-1.86-1.44-3.732Zm-26.688-66.888q.812,1.827,1.609,3.66l.917-.4q-.8-1.838-1.612-3.668Zm12.309,29.566q.733,1.86,1.463,3.722l.931-.366q-.729-1.862-1.464-3.723Zm-15.608-36.851q.837,1.815,1.664,3.636l.91-.412q-.828-1.827-1.667-3.641Zm-3.417-7.227q.868,1.8,1.725,3.607l.9-.427q-.856-1.812-1.728-3.614Zm5.992,10.452v0h0Zm10.062,26.19q.751,1.857,1.493,3.717l.93-.37q-.745-1.861-1.495-3.722Zm-5.224-15.192-.919.395q.786,1.835,1.563,3.68l.922-.386,0,0Q1231.68,1853.457,1230.891,1851.618Zm2.185,7.765q.771,1.855,1.529,3.711l.925-.377q-.759-1.862-1.53-3.717Z" transform="translate(-780.831 -1467.734)" fill="#fff" opacity="0.6"/></svg>