<svg xmlns="http://www.w3.org/2000/svg" width="1437.82" height="289.993" viewBox="0 0 1437.82 289.993"><path d="M1760.949,2121.51q-1.188,1.617-2.365,3.227l.808.591q1.178-1.611,2.364-3.227l-.807-.593Zm-11.886,16.076.8.6q1.2-1.587,2.407-3.2l-.8-.6Q1750.265,2136,1749.063,2137.586Zm4.787-6.4.8.594q1.182-1.6,2.371-3.222l-.805-.593Q1755.032,2129.58,1753.85,2131.184Zm9.471-12.9.8.593q1.182-1.6,2.38-3.212l-.8-.6Q1764.506,2116.68,1763.321,2118.285Zm4.784-6.421.8.6q1.2-1.592,2.42-3.181l-.794-.609Q1769.306,2110.27,1768.1,2111.864Zm94.617-70.143.264.964q1.905-.521,3.855-1.007l-.242-.97Q1864.637,2041.2,1862.722,2041.721Zm-140.372,125.36.643.766q1.539-1.293,3.033-2.644l-.671-.743Q1723.871,2165.8,1722.35,2167.081Zm50.633-61.569.787.616q1.228-1.57,2.479-3.134l-.781-.624Q1774.214,2103.938,1772.983,2105.512Zm-56.909,66.433.58.817q1.635-1.162,3.22-2.4l-.613-.789Q1717.693,2170.8,1716.074,2171.945Zm28.095-28.043.783.621q1.241-1.562,2.471-3.152l-.79-.613Q1745.406,2142.343,1744.169,2143.9Zm-5.058,6.175.763.647q1.29-1.523,2.565-3.081l-.775-.632Q1740.4,2148.562,1739.111,2150.077Zm-5.283,5.972.735.679q1.354-1.466,2.687-2.973l-.748-.662Q1735.174,2154.593,1733.828,2156.049Zm-5.567,5.695.694.719q1.438-1.386,2.844-2.828l-.715-.7Q1729.687,2160.367,1728.261,2161.744ZM1832.842,2053.2l.455.891q1.759-.9,3.571-1.761l-.429-.9Q1834.615,2052.294,1832.842,2053.2Zm-7.04,3.832.5.866q1.707-.993,3.469-1.952l-.477-.878Q1827.522,2056.031,1825.8,2057.029Zm14.278-7.279.4.914q1.809-.8,3.663-1.566l-.382-.925Q1841.9,2048.945,1840.08,2049.75Zm14.965-5.73.31.951q1.875-.612,3.8-1.189l-.287-.957Q1856.934,2043.4,1855.045,2044.02Zm-7.556,2.673.359.933q1.842-.7,3.737-1.374l-.335-.943Q1849.345,2045.983,1847.489,2046.693Zm-28.51,14.549.546.836q1.657-1.086,3.362-2.138l-.526-.85Q1820.647,2060.147,1818.979,2061.242Zm-35.812,31.9.754.658q1.308-1.5,2.648-2.987l-.742-.669Q1784.483,2091.632,1783.167,2093.139Zm29.226-27.324.59.806q1.6-1.173,3.242-2.316l-.571-.821Q1814,2064.635,1812.393,2065.815Zm-23.853,21.375.73.683q1.359-1.451,2.755-2.885l-.716-.7Q1789.907,2085.732,1788.54,2087.19Zm-10.549,12.067.773.636q1.263-1.539,2.555-3.069l-.763-.644Q1779.259,2097.713,1777.991,2099.257Zm16.144-17.81.7.714q1.416-1.4,2.872-2.766l-.686-.729Q1795.558,2080.044,1794.135,2081.447Zm5.835-5.5.669.744q1.474-1.328,2.993-2.633l-.652-.758Q1801.452,2074.614,1799.97,2075.948Zm6.084-5.221.634.774q1.533-1.255,3.116-2.48l-.613-.791Q1807.6,2069.464,1806.054,2070.727Zm-93.263,103.446q-1.662,1.075-3.382,2.074l.5.864q1.739-1.01,3.42-2.1l-.543-.84Zm-145.06,14.216h4v-1h-4Zm8,0h4v-1h-4Zm-16,0h4v-1h-4Zm32,0h4v-1h-4Zm-40,0h4v-1h-4Zm32,0h4v-1h-4Zm-48,0h4v-1h-4Zm-16,0h4v-1h-4Zm-8,0h4v-1h-4Zm16,0h4v-1h-4Zm16,0h4v-1h-4Zm56,0h4v-1h-4Zm48,0h4v-1h-4Zm27.929-1.467q-1.95.19-3.964.3l.058,1q2.032-.115,4-.306l-.1-.994Zm-7.937.45q-1.005.019-2.023.02c-.281,0-.565,0-.848,0h-1.121v1h1.119c.281,0,.565,0,.85,0q1.029,0,2.039-.019l-.018-1Zm-59.992,1.017h4v-1h-4Zm91-6.94q-1.824.728-3.715,1.372l.321.947q1.917-.654,3.765-1.39l-.369-.929ZM1687.4,2185l.23.973q1.973-.464,3.88-1.01l-.276-.962Q1689.348,2184.545,1687.4,2185Zm-31.666,3.385h4v-1h-4Zm23.873-1.933.139.991q2.011-.283,3.958-.645l-.182-.983Q1681.594,2186.176,1679.6,2186.456Zm-63.873,1.933h4v-1h-4Zm8,0h4v-1h-4Zm-120,0h4v-1h-4Zm198.645-8.495.414.909q1.838-.839,3.608-1.757l-.461-.89Q1704.186,2179.065,1702.375,2179.894Zm-62.644,8.495h4v-1h-4Zm-8,0h4v-1h-4ZM1870.5,2039.782l.22.976q1.926-.437,3.9-.837l-.2-.98Q1872.431,2039.346,1870.5,2039.782Zm241.954-117.877.419.908q1.792-.827,3.634-1.543l-.363-.932Q2114.271,1921.065,2112.451,1921.905Zm-13.766,8.242.59.806q1.614-1.182,3.253-2.284l-.557-.83Q2100.312,1928.95,2098.685,1930.147Zm6.674-4.466.518.856q1.7-1.029,3.447-1.961l-.471-.881Q2107.085,1924.637,2105.359,1925.681ZM2119.94,1919l.3.953q1.876-.591,3.808-1.066l-.239-.971Q2121.842,1918.4,2119.94,1919Zm3.868-1.084Zm-70.824,57.029.711.7q1.417-1.425,2.809-2.852l-.716-.7Q2054.4,1973.521,2052.984,1974.945Zm16.575-17.341.727.687q1.382-1.467,2.745-2.91l-.726-.688Q2070.939,1956.138,2069.559,1957.6Zm-5.482,5.83.728.684q1.382-1.464,2.741-2.914l-.728-.684Q2065.456,1961.966,2064.077,1963.434Zm-5.509,5.793.72.693q1.4-1.451,2.766-2.9l-.725-.688Q2059.959,1967.778,2058.568,1969.227Zm22.088-23.168.709.705q1.419-1.424,2.839-2.805l-.7-.717Q2082.083,1944.628,2080.656,1946.059Zm5.751-5.587.684.729q1.467-1.374,2.939-2.692l-.666-.745Q2087.88,1939.088,2086.407,1940.472Zm-8.562,8.441q-1.386,1.424-2.781,2.88l.723.693q1.391-1.455,2.774-2.876l-.714-.7Zm49.9-31.822.174.984q1.923-.336,3.912-.554l-.108-.994Q2129.7,1916.747,2127.741,1917.091Zm79.038-8.089.333.943q1.881-.667,3.76-1.415l-.37-.928Q2208.642,1908.343,2206.779,1909Zm-7.591,2.387.265.963q1.923-.528,3.852-1.134l-.3-.954Q2201.093,1910.866,2199.188,1911.389Zm-7.745,1.85.2.98q1.956-.4,3.92-.868l-.233-.972Q2193.385,1912.842,2191.443,1913.239Zm26.329-8.858h0Zm0,0q-1.8.882-3.6,1.679l.405.914q1.821-.8,3.64-1.695Zm-34.179,10.211.139.989q1.98-.279,3.965-.621l-.169-.986Q2185.557,1914.311,2183.594,1914.592Zm-23.865,1.679.014,1q1.992-.029,4.008-.086l-.028-1Q2161.715,1916.245,2159.729,1916.271Zm-16,.936q1.983.027,4,.051l.011-1q-2.016-.024-4-.051Zm10.99-.9c-1,0-1.991,0-2.981-.01l-.007,1c.992.006,1.986.01,2.988.01.338,0,.678,0,1.017,0l0-1C2155.4,1916.305,2155.056,1916.305,2154.719,1916.305Zm12.992-.27.046,1q1.993-.091,4-.225l-.067-1Q2169.694,1915.944,2167.711,1916.035Zm-28.944.114c-1.029,0-2.043.025-3.045.069l.047,1q1.477-.068,3-.067c.246,0,.493,0,.743,0l.22,0,.011-1c-.073,0-.146,0-.219,0C2139.27,1916.151,2139.017,1916.149,2138.767,1916.149Zm36.9-.648.09,1q1.99-.177,3.992-.406l-.113-.993Q2177.65,1915.326,2175.671,1915.5Zm-83.281,19.628.646.763q1.531-1.3,3.077-2.525l-.619-.784Q2093.931,1933.82,2092.39,1935.129Zm-174.213,99.462.037,1q2.021-.075,4-.179l-.053-1Q1920.189,2034.514,1918.177,2034.591Zm15.922-1.093.1,1q2.013-.207,3.983-.44l-.117-.993Q1936.1,2033.3,1934.1,2033.5Zm-7.951.674.069,1q2.015-.136,3.995-.3l-.086-1Q1928.156,2034.035,1926.148,2034.172Zm15.87-1.617.137.991q2-.276,3.963-.581l-.154-.988Q1944.011,2032.28,1942.018,2032.555Zm105.273-52.008.691.722q1.453-1.4,2.872-2.793l-.7-.712Q2048.736,1979.156,2047.291,1980.547Zm-97.394,50.778.173.985q1.991-.35,3.939-.732l-.192-.979C1952.523,2030.851,1951.219,2031.093,1949.9,2031.325Zm7.825-1.531.212.977q1.973-.429,3.906-.887l-.232-.974Q1959.688,2029.369,1957.722,2029.794Zm-75.427,7.716q-2,.32-3.947.675l.177.984q1.942-.352,3.929-.674l-.158-.985Zm3.962-.6.139.991q1.954-.274,3.953-.519l-.121-.992Q1888.221,2036.633,1886.257,2036.91Zm7.95-.97.1.994q1.965-.2,3.97-.375l-.086-1Q1896.181,2035.735,1894.207,2035.94Zm7.979-.688.071,1q1.968-.14,3.98-.244l-.053-1Q1904.167,2035.116,1902.186,2035.252Zm11.985-.542q-2.013.044-3.987.118l.038,1q1.965-.072,3.971-.118l-.021-1Zm51.3-6.764.254.969q1.953-.508,3.866-1.052l-.273-.962Q1967.42,2027.442,1965.475,2027.946Zm57.412-26.874.583.813q1.635-1.174,3.232-2.372l-.6-.8Q2024.515,1999.9,2022.887,2001.072Zm9.5-7.271q-1.538,1.251-3.116,2.488l.616.787q1.585-1.241,3.132-2.5l-.631-.773Zm-16.074,11.775.548.838q1.686-1.1,3.332-2.229l-.567-.824Q2017.988,2004.48,2016.309,2005.576Zm19.143-14.324.646.765q1.538-1.3,3.036-2.617l-.658-.752Q2036.982,1989.958,2035.452,1991.252Zm-58.513,33.308Zm64.515-38.566.671.741q1.494-1.352,2.95-2.713l-.683-.731Q2042.94,1984.645,2041.454,1985.994Zm-31.917,23.784.508.863q1.737-1.024,3.431-2.075l-.528-.849Q2011.265,2008.761,2009.537,2009.778Zm-28.832,13.484.338.939q1.9-.678,3.758-1.392l-.359-.934Q1982.6,2022.586,1980.7,2023.262Zm-7.561,2.509.292.958q1.935-.594,3.818-1.22l-.315-.949Q1975.064,2025.182,1973.144,2025.771Zm15-5.366.378.925q1.871-.769,3.69-1.566l-.4-.916Q1990,2019.64,1988.145,2020.405Zm14.432-6.747.467.885q1.785-.942,3.522-1.91l-.487-.873Q2004.351,2012.723,2002.577,2013.658Zm-7.137,3.545.424.9q1.828-.852,3.611-1.739l-.446-.9Q1997.26,2016.354,1995.44,2017.2ZM1343.729,2187.39l0,1c.057,0,.111,0,.166,0h3.833v-1h-4Zm-342.164-176.246v0h0Zm3.018,2.8q1.754.941,3.554,1.852l.452-.892q-1.789-.9-3.534-1.841Zm-6.975-3.956q1.71,1.023,3.465,2.021l.492-.871q-1.745-.991-3.442-2.006Zm18.175,8.346h0Zm-4.048-.77q1.8.857,3.639,1.683l.409-.913q-1.833-.822-3.617-1.673Zm-20.908-11.851q1.662,1.1,3.366,2.178l.534-.847q-1.7-1.069-3.347-2.164Zm-6.582-4.575q1.609,1.17,3.266,2.322l.57-.82q-1.647-1.145-3.248-2.312Zm-24.4-20.757q1.431,1.386,2.9,2.766l.686-.727q-1.461-1.375-2.887-2.759Zm59.21,40.459q1.833.768,3.714,1.508l.364-.931q-1.867-.734-3.69-1.5Zm-53.376-34.966q1.469,1.344,2.976,2.681l.665-.747q-1.5-1.332-2.966-2.672Zm-11.526-11.133q1.4,1.418,2.83,2.836l.705-.711q-1.426-1.413-2.823-2.827Zm23.712,21.544q1.562,1.237,3.165,2.458l.606-.8q-1.594-1.212-3.15-2.446Zm-6.185-5.1q1.513,1.3,3.067,2.579l.638-.772q-1.548-1.277-3.056-2.566Zm85.756,40.9q1.953.355,3.949.679l.16-.988q-1.984-.321-3.93-.674Zm31.833,3.452q1.983.084,4,.138l.025-1h0q-2.013-.055-3.987-.138Zm-8-.46q1.98.146,4,.261l.056-1q-2.007-.117-3.98-.262Zm15.995.7q2.011.064,3.989.159l.048-1q-1.983-.091-4.005-.161Zm15.925,1.026q2,.195,3.966.423l.116-.992q-1.972-.229-3.983-.426Zm-39.9-2.447q1.972.21,3.987.392l.087-.995h0q-2.005-.181-3.969-.391Zm31.945,1.8q2.01.129,3.98.289l.08-1h0q-1.977-.159-4-.288Zm-55.657-5.664q1.939.432,3.92.831l.2-.98q-1.969-.4-3.9-.828Zm-15.477-4.149q1.893.6,3.836,1.164l.278-.961q-1.927-.561-3.814-1.156Zm7.695,2.241q1.919.512,3.881.993l.239-.97q-1.953-.477-3.862-.989ZM948.571,1969q1.377,1.436,2.779,2.882l.718-.7q-1.4-1.44-2.773-2.878Zm78.285,53.832-.342.938q1.866.684,3.778,1.333l.324-.945h0Q1028.715,2023.512,1026.856,2022.834Zm38.486,10.537q1.965.282,3.969.531l.124-.992q-2-.249-3.952-.529ZM863.725,1916.225l.014,1q2.017-.028,4-.053l-.012-1Q865.743,1916.2,863.725,1916.225Zm-24.016.747q2.015.1,4.006.172l.034-1q-1.983-.068-3.987-.172Zm-8-.593c1.337.131,2.67.242,4,.341l.073-1q-1.98-.147-3.974-.34Zm-15.861-2.422q1.974.423,3.938.781l.178-.984q-1.947-.354-3.905-.775Zm7.9,1.439q2,.3,3.977.545l.122-.993q-1.969-.242-3.949-.54Zm23.979,1.853q2.013.038,4.005.049l.007-1q-1.986-.012-3.995-.048Zm8.007-.948,0,1c1.345,0,2.68-.016,4-.029l-.009-1Q857.742,1916.292,855.731,1916.3Zm-62.724-9.85q1.842.844,3.682,1.6l.381-.924v0q-1.823-.75-3.647-1.584Zm-12.613-6.869c.658.416,1.313.844,1.971,1.241l.519-.855c-.831-.5-1.66-1.035-2.49-1.569Zm5.446,3.253q1.773.983,3.55,1.877l.45-.892q-1.758-.889-3.516-1.859Zm335.4,133.905-.134.99q1.993.269,3.945.571l.154-.987h0Q1123.249,2037.009,1121.245,2036.74ZM808.06,1912.008q1.942.556,3.879,1.04l.243-.97q-1.922-.48-3.844-1.032Zm-7.629-2.5q1.9.7,3.793,1.317l.31-.949v0q-1.878-.611-3.758-1.305Zm86.879,10.079q1.906.558,3.754,1.235l.342-.937q-1.878-.688-3.814-1.258Zm21.138,10.626q1.606,1.148,3.188,2.374l.612-.792q-1.6-1.234-3.218-2.4Zm-36.731-13.045q2.013.053,3.957.226l.09-1q-1.977-.175-4.02-.228Zm54.761,28.695q1.405,1.4,2.813,2.834l.714-.7h0q-1.416-1.441-2.823-2.844Zm-5.753-5.527q1.451,1.341,2.9,2.736l.694-.721q-1.453-1.4-2.917-2.75Zm16.858,17.023q1.362,1.446,2.74,2.914l.73-.685-2.743-2.915Zm-5.509-5.8q1.377,1.43,2.763,2.89l.723-.688h0q-1.387-1.462-2.765-2.9Zm-17.335-16.487q1.52,1.261,3.027,2.589l.66-.751h0q-1.52-1.336-3.049-2.608Zm580.991,253.308h4v-1h-4Zm-552.668-225.2,2.748,2.911.727-.688q-1.383-1.461-2.745-2.907Zm-63.46-45.319q1.974.306,3.882.731l.217-.976h0q-1.944-.432-3.948-.742Zm22.188,8.027q1.706.992,3.377,2.079l.544-.838q-1.692-1.1-3.418-2.106Zm-7.058-3.6q1.812.792,3.577,1.7l.454-.891q-1.789-.914-3.629-1.721Zm10.98,4.84v0h0Zm462.019,261.247h4v-1h-4Zm-8,0h4v-1h-4Zm-8,0h4v-1h-4Zm32,0h4v-1h-4Zm-48.011-.244q1.968.137,4,.2l.03-1q-2.016-.059-3.966-.2Zm40.011.244h4v-1h-4Zm-47.83-2.115-.151.989q1.956.3,3.975.525l.111-.994h0Q1329.837,2186.572,1327.9,2186.274Zm63.83,2.115h4v-1h-4Zm-94.01-11.932q1.719,1.033,3.5,1.994l.472-.881q-1.755-.945-3.457-1.97Zm-6.667-4.443q1.613,1.184,3.278,2.293l.555-.832q-1.647-1.1-3.243-2.267Zm13.748,8.252q1.8.858,3.665,1.636l.384-.924q-1.84-.766-3.62-1.614Zm15.086,5.413q1.923.483,3.913.883l.2-.98q-1.969-.4-3.868-.873Zm-35.115-18.661q1.521,1.311,3.09,2.56l.623-.781q-1.554-1.239-3.062-2.538Zm27.438,16.332q1.87.672,3.81,1.258l.289-.956q-1.913-.579-3.762-1.244Zm151.519,5.039h4v-1h-4Zm-16,0h4v-1h-4Zm24,0h4v-1h-4Zm-16,0h4v-1h-4Zm24,0h4v-1h-4Zm-80,0h4v-1h-4Zm88,0h4v-1h-4Zm-72,0h4v-1h-4Zm-8,0h4v-1h-4Zm24,0h4v-1h-4Zm-8,0h4v-1h-4Zm16,0h4v-1h-4ZM1248.6,2124.3q1.185,1.62,2.364,3.229l.808-.592q-1.182-1.608-2.367-3.226Zm-74.268-70.773q1.794.9,3.538,1.827l.472-.883q-1.757-.937-3.562-1.838Zm13.835,7.872q1.685,1.081,3.32,2.2l.563-.825q-1.647-1.122-3.341-2.214ZM1213,2081.277q1.433,1.392,2.829,2.809l.712-.7q-1.4-1.422-2.844-2.824Zm-18.261-15.4q1.625,1.17,3.2,2.373l.606-.8q-1.587-1.209-3.22-2.388Zm12.422,9.969q1.5,1.328,2.95,2.68l.681-.732q-1.464-1.359-2.968-2.7Zm-6.087-5.141q1.56,1.252,3.075,2.533l.647-.764q-1.525-1.287-3.094-2.55Zm-19.722-13.438q1.742.991,3.432,2.014l.518-.855q-1.7-1.031-3.456-2.03Zm-36.8-14.912q1.943.517,3.836,1.07l.28-.96q-1.905-.555-3.859-1.076Zm22.56,7.8q1.84.8,3.63,1.634l.423-.906h0q-1.8-.842-3.655-1.644Zm-30.3-9.675q1.964.43,3.881.894l.237-.972q-1.932-.468-3.906-.9Zm22.918,6.7q1.883.7,3.713,1.44l.373-.927q-1.842-.742-3.736-1.45Zm-7.527-2.6q1.914.608,3.78,1.251l.325-.944q-1.878-.648-3.8-1.26Zm115.845,105.159q1.291,1.54,2.6,3.048l.753-.656q-1.3-1.5-2.592-3.034Zm-9.935-12.575q1.212,1.6,2.428,3.186l.792-.608q-1.211-1.581-2.42-3.18Zm4.886,6.349q1.245,1.579,2.5,3.131l.777-.63q-1.25-1.542-2.49-3.12Zm-9.666-12.772q1.193,1.618,2.382,3.218l.8-.6q-1.191-1.6-2.38-3.213Zm-124.342-91.8q1.981.347,3.917.729l.195-.982q-1.947-.383-3.94-.731Zm149.886,122.626q1.434,1.413,2.9,2.769l.678-.735q-1.458-1.344-2.881-2.748Zm-5.559-5.786q1.359,1.486,2.741,2.93l.721-.693q-1.374-1.431-2.722-2.911Zm-29.457-37.936q1.192,1.609,2.372,3.218l.806-.593q-1.18-1.607-2.375-3.22Zm-25.253-30.9q1.374,1.453,2.715,2.922l.738-.676q-1.345-1.473-2.729-2.934Zm5.38,5.891q1.321,1.5,2.615,3.013l.761-.647q-1.3-1.521-2.627-3.027Zm5.184,6.069q1.278,1.544,2.526,3.091l.78-.628q-1.256-1.552-2.536-3.1Zm5.016,6.215q1.24,1.572,2.457,3.15l.792-.611q-1.222-1.579-2.463-3.159Zm4.884,6.324q1.211,1.6,2.405,3.194l.8-.6q-1.194-1.6-2.407-3.2Z" transform="translate(-780.394 -1898.399)" fill="#fff" opacity="0.6"/></svg>